<?xml version="1.0" standalone="no"?>
<!DOCTYPE svg PUBLIC "-//W3C//DTD SVG 20010904//EN"
 "http://www.w3.org/TR/2001/REC-SVG-20010904/DTD/svg10.dtd">
<svg version="1.0" xmlns="http://www.w3.org/2000/svg"
 width="192.000000pt" height="192.000000pt" viewBox="0 0 192.000000 192.000000"
 preserveAspectRatio="xMidYMid meet">
<metadata>
Created by potrace 1.14, written by Peter Selinger 2001-2017
</metadata>
<g transform="translate(0.000000,192.000000) scale(0.100000,-0.100000)"
fill="#000000" stroke="none">
<path d="M0 955 l0 -615 960 0 960 0 0 615 0 615 -960 0 -960 0 0 -615z m251
535 c39 -18 54 -54 54 -131 0 -57 -4 -72 -22 -90 l-21 -22 21 -29 c19 -25 22
-46 25 -139 l4 -109 -40 0 c-49 0 -52 6 -52 120 0 95 -8 110 -59 110 -20 0
-21 -5 -21 -115 l0 -115 -40 0 -40 0 0 271 0 272 83 -5 c45 -3 94 -11 108 -18z
m336 -235 c23 -137 42 -258 42 -267 1 -14 -7 -18 -39 -18 -42 0 -45 4 -52 70
-3 22 -8 25 -50 28 -51 3 -52 1 -60 -68 -3 -22 -9 -25 -44 -28 l-40 -3 42 260
c23 143 45 265 49 271 4 6 29 10 58 8 l52 -3 42 -250z m171 145 l4 -105 52
105 52 105 42 3 43 3 -51 -101 -51 -102 46 -155 c26 -86 49 -162 52 -169 4
-11 -6 -14 -40 -14 l-45 0 -20 68 c-11 37 -26 86 -33 110 -7 23 -15 42 -19 42
-17 0 -30 -58 -30 -135 l0 -85 -45 0 -45 0 0 263 c0 145 3 267 7 271 4 4 23 6
43 4 l35 -3 3 -105z m257 65 l20 -16 -20 10 c-11 5 -29 17 -40 26 l-20 16 20
-10 c11 -5 29 -17 40 -26z m250 -155 c72 -46 137 -89 145 -98 12 -12 -93 51
-177 106 -30 19 -51 9 -53 -25 -1 -56 -5 -81 -12 -89 -24 -23 7 -72 72 -117
19 -13 24 -24 22 -52 -5 -69 37 -115 106 -115 l49 0 40 -157 41 -158 1 158 1
157 40 0 40 0 -2 -267 -3 -268 -44 0 -44 0 -46 178 -46 179 -5 -179 -5 -178
-37 -3 -38 -3 0 270 0 271 -22 0 c-19 0 -20 -2 -8 -10 12 -8 11 -10 -7 -10
l-23 0 0 -260 0 -260 -45 0 -45 0 0 269 0 270 32 3 c38 3 43 18 34 83 -7 42
-8 43 -51 48 -55 6 -75 21 -75 57 0 16 -11 41 -24 57 -34 40 -40 68 -21 96 8
13 12 26 9 30 -13 13 6 57 25 57 30 0 46 -26 33 -55 -8 -18 -8 -26 4 -35 23
-20 44 6 44 55 0 41 -3 45 -50 75 -27 18 -50 34 -50 37 0 6 29 -11 195 -117z
m220 -145 l20 -16 -20 10 c-11 5 -29 17 -40 26 l-20 16 20 -10 c11 -5 29 -17
40 -26z m110 -70 l20 -16 -20 10 c-11 5 -29 17 -40 26 l-20 16 20 -10 c11 -5
29 -17 40 -26z m110 -70 l20 -16 -20 10 c-11 5 -29 17 -40 26 l-20 16 20 -10
c11 -5 29 -17 40 -26z m110 -70 l20 -16 -20 10 c-11 5 -29 17 -40 26 l-20 16
20 -10 c11 -5 29 -17 40 -26z m55 -76 l0 -39 -75 0 -75 0 0 -70 0 -70 61 0 60
0 -3 -37 -3 -38 -57 -3 -58 -3 0 -79 0 -80 75 0 75 0 0 -40 0 -40 -115 0 -115
0 0 270 0 270 106 0 c81 0 103 3 98 13 -5 8 -2 8 9 -2 11 -8 17 -28 17 -52z
m-1580 6 c0 -22 -32 -114 -79 -230 l-80 -195 80 0 79 0 0 -40 0 -40 -125 0
-125 0 0 39 c0 25 26 103 75 222 41 101 75 187 75 192 0 4 -31 7 -70 7 l-70 0
0 40 0 40 120 0 120 0 0 -35z m130 -235 l0 -270 -45 0 -45 0 0 270 0 270 45 0
45 0 0 -270z m250 255 c43 -22 60 -63 60 -145 0 -110 -39 -160 -124 -160 l-35
0 -3 -107 -3 -108 -42 -3 -43 -3 0 270 0 271 80 0 c53 0 91 -5 110 -15z m310
-215 l0 -230 70 0 70 0 0 -40 0 -40 -110 0 -110 0 0 270 0 270 40 0 40 0 0
-230z"/>
<path d="M140 1355 l0 -75 34 0 c39 0 46 11 46 79 0 54 -12 71 -52 71 l-28 0
0 -75z"/>
<path d="M471 1308 c-7 -46 -15 -100 -18 -120 -6 -38 -6 -38 31 -38 20 0 36 4
36 10 0 16 -32 225 -35 228 -1 2 -8 -34 -14 -80z"/>
<path d="M570 760 l0 -80 30 0 c36 0 50 23 50 80 0 57 -14 80 -50 80 l-30 0 0
-80z"/>
</g>
</svg>
