<?xml version="1.0" encoding="utf-8"?>
<!-- Generator: Adobe Illustrator 26.3.1, SVG Export Plug-In . SVG Version: 6.00 Build 0)  -->
<svg version="1.1" id="Layer_1" xmlns="http://www.w3.org/2000/svg" xmlns:xlink="http://www.w3.org/1999/xlink" x="0px" y="0px"
	 viewBox="0 0 94.14 61.25" style="enable-background:new 0 0 94.14 61.25;" xml:space="preserve">
<style type="text/css">
	.st0{fill:#FFFFFF;}
</style>
<g id="EsruhE_00000155135266441079961020000007896440053012735629_">
	<g>
		<path class="st0" d="M-273.75,277.41c0,6.32,0,12.65,0,19c-95.33,0-190.67,0-286,0c-2.31-0.96-4.69-1.79-6.91-2.93
			c-2.34-1.2-4.99-2.3-6.62-4.2c-1.32-1.53-1.33-4.18-1.95-6.44c0.47-0.21,1.35-0.6,2.97-1.31c-2.18-0.73-3.47-1.17-4.76-1.6
			c-0.01-0.4-0.02-0.8-0.02-1.2c1.49-0.27,2.98-0.54,5.03-0.92c-0.83-1.4-1.74-2.55-2.24-3.85c-0.61-1.57-0.88-3.26-1.29-4.9
			c2.01,0.26,4.04,0.37,6.01,0.82c1.77,0.4,3.47,1.17,5.19,1.77c0.23-0.83,0.47-1.65,0.7-2.48c-4.34-1.16-8.67-2.33-12.71-3.41
			c0.72-1.8,1.48-3.71,2.65-6.63c2.89-0.34,7.07-0.83,11.25-1.32c-0.02-0.52-0.03-1.04-0.05-1.56c-1.97,0.06-3.99,0.4-5.9,0.1
			c-1.71-0.27-4.05-0.8-4.77-2.01c-0.75-1.27-0.59-4.42,0.36-5.11c2.53-1.83,5.7-2.78,9.14-4.31c-2.95-1.25-5.96-2.52-9.16-3.88
			c3.37-2.44,6.51-4.73,10.76-7.81c-3.57,0-5.97,0.19-8.31-0.07c-1.36-0.16-2.64-1.06-3.95-1.62c0.67-1.38,1.17-2.89,2.07-4.11
			c1.05-1.43,2.45-2.6,4.15-4.34c-2.54-0.41-3.98-0.63-4.99-0.8c0.37-12.29-0.46-24.04-3.25-35.56c-0.49,0.02-0.99,0.04-1.49,0.05
			c-1.53,7.39-3.06,14.78-4.64,22.41c-0.14-0.01-1.24-0.09-2.62-0.19c0.58,1.19,1.03,2.11,1.58,3.23c-1.45,0.22-2.55,0.38-4.05,0.6
			c1.96,2.24,3.69,4.21,5.26,6.01c-1.46,1.24-4.18,2.7-4,3.5c1.37,6.06-2.97,3.56-5.63,3.61c-0.12,0.5-0.24,1.01-0.35,1.51
			c4.21,2.1,8.42,4.21,12.66,6.33c-3.08,0.42-6.4,0.88-10.41,1.43c1.57,2.17,2.95,4.07,4.32,5.96c-5.32,3.09-6.85,9.31-3.91,14.38
			c-1.29,0.62-3.8,1.44-3.74,1.87c0.71,4.82,4.28,5.01,8.4,3.99c0.16,0.42,0.32,0.85,0.48,1.27c-1.3,0.63-2.6,1.25-4.26,2.05
			c1.96,1.08,2.95,1.62,3.94,2.17c-2.51,0.64-4.85-0.46-6.69,0.09c-1.08,0.32-1.38,3.27-2.26,5.67c3.41,0,5.64,0,7.88,0
			c0,0.43-0.01,0.86-0.01,1.29c-1.15,0.38-2.29,0.76-3.57,1.19c0.21,3.44,0.4,6.69,0.59,9.85c-2.97,0.76-5.61,1.43-8.9,2.27
			c1.74,1.88,2.87,3.11,4.18,4.52c-1.72,0.8-3.06,1.41-5.04,2.33c2.85,0.95,4.87,1.63,6.9,2.31c-44,0-88,0-132,0c0-132,0-264,0-396
			c69.52-20.88,139.05-41.69,208.53-62.69c17.93-5.42,35.67-11.44,52.25-16.79c2.35,2.31,3.78,4.95,5.71,5.4
			c9.89,2.28,13.58,9.12,14.61,18.26c0.34,2.97-0.18,6.39,1.12,8.84c3.46,6.51-0.65,12.61,0.67,18.98
			c-1.16-0.14-1.56-0.07-1.79-0.23c-6-4.41-9.76-3.34-12.2,3.83c-0.9,2.64-1.55,5.64-1.25,8.36c0.51,4.61-0.39,10.08,5.36,12.63
			c0.52,0.23,0.64,1.36,0.94,2.08c-0.55-0.02-1.11-0.03-1.66-0.05c-0.39,1.9-0.81,3.8-1.15,5.71c-0.18,0.99-0.14,2.02-0.31,3.02
			c-1.1,6.65-7.7,13.19-0.3,20.03c0.53,0.49,0.28,1.91,0.28,2.9c-0.02,3-0.52,6.07-0.05,8.98c0.86,5.3-1.79,7.67-6.15,9.69
			c-3.4,1.58-6.67,3.79-9.41,6.35c-2.84,2.66-2.53,8.75-0.08,9.65c3.66,1.36,9.96-0.73,12.57-3.87c1.21-1.46,2.92-2.5,5.43-4.58
			c0,2.49,0.33,3.51-0.05,4.01c-5.29,7.01-2.93,14.38-1.78,21.99c0.66,4.35,0.42,9.86-1.77,13.39c-3.22,5.17-5.04,10.37-5.65,16.19
			c-0.24,2.24-0.04,4.52-0.04,6.78c0.04,1.45-0.96,3.06-2.37,3.59c-5.58,2.13-7.19,6.64-8.55,11.88c-0.73,2.81-2.6,6.13-4.97,7.55
			c-8.08,4.88-16.57,9.09-24.97,13.43c-2.88,1.49-5.86,2.92-8.96,3.81c-9.73,2.8-19.84,4.55-29.27,8.13
			c-21.25,8.05-42.28,16.73-63.2,25.62c-7.55,3.2-13.78,9.23-13.17,17.83c0.75,10.6-1.88,20.45-3.54,30.57
			c-1.19,7.21-0.76,15.14-3.72,21.51c-5.36,11.55-12.22,22.49-19.37,33.08c-5.43,8.04-13.84,12.66-22.36,17.57
			c-11.56,6.66-23.16,12.37-36.21,14.72c-9.37,1.69-11.71,11.07-5.33,17.49c8.45,8.51,26.31,12.77,38.04,8.51
			c5.65-2.05,11.5-3.52,18.18-5.53c-4.41,9.94-11.12,14.58-20.5,15.51c-2.32,0.23-4.64,0.46-6.96,0.7c-3.51,0.37-7,1.33-7.28,5.41
			c-0.29,4.24,1.23,8.26,6.15,8.87c6.39,0.8,12.92,1.78,19.26,1.21c7.9-0.7,15.7-2.78,23.49-4.48c9.9-2.16,19.76-4.46,29.61-6.85
			c3.38-0.82,5.98-2.85,4.91-6.77c-1.4-5.1-2.31-10.76-5.23-14.91c-2.87-4.08-2.55-7.45-1.57-11.5
			c4.51-18.79,9.28-37.34,20.92-53.51c3.82-5.3,5.01-12.49,7.42-18.81c0.82-2.14,1.63-4.29,2.51-6.41
			c3.15-7.62,6.76-15.08,9.36-22.89c2.22-6.67,2.12-7.34,9.18-5.87c12.19,2.54,24.27,5.54,36.45,8.13
			c17.94,3.82,35.89,7.48,54.3,2.59c5.08-1.35,10.35-1.99,15.56-2.81c6.19-0.97,12.83-0.69,18.54-2.87
			c18.51-7.06,31.61-19.35,34.89-40.01c0.4-2.53,0.99-5.49,2.58-7.27c5.48-6.14,6.4-10.07,2.94-17.63
			c4.34-5.09,11.06-8.76,10.78-16.94c4.09-2.13,8.26-4.19,12.32-6.45c28.83-16.02,55.58-33.88,68.51-66.64
			c5.65-14.32,6.59-26.36-2.4-34.81c-8.86-8.32-10.08-18.67-10.7-29.56c-0.06-1.04,0.19-2.61,0.89-3.11
			c5.29-3.83,7.27-9.28,8.18-15.39c0.75-5.05,1.65-10.07,2.54-15.46c0.43-0.15,1.34-0.57,2.3-0.76c4.53-0.88,6.62-3.04,5.15-8.01
			c-2.34-7.94-3.88-16.15-6.65-23.93c-1.24-3.49-4.12-6.88-7.11-9.19c-17.25-13.33-50.75-8.18-65.76,12.23
			c-0.87,1.18-1.56,2.59-1.96,4c-2,6.99-3.87,14.02-5.83,21.19c0.58,0.35,1.14,0.68,1.69,1.01c2.17,1.29,6.56-0.99,6.62,3.35
			c0.04,2.77-1.3,5.64-2.42,8.3c-0.75,1.8-2.42,3.22-3.24,5.01c-0.56,1.23-0.38,2.8-0.53,4.23c6.36,0.02,7.36,6.3,11.03,9.45
			c0.13,0.11,0.28,0.18,0.42,0.27c-0.37,0.12-0.74,0.24-1.12,0.36c0.66,2.38,1.32,4.76,2.07,7.47c-8.82-1.52-15.89,3.74-23.26,8.11
			c-4.15,2.46-8.01,5.44-12.28,7.64c-3.94,2.04-8.21,3.51-12.45,4.85c-0.88,0.28-2.72-0.81-3.38-1.77
			c-4.68-6.84-7.92-14.3-7.9-22.73c0.01-4.57-1.83-7.2-6.25-8.2c-2.87-0.65-4.63-2.6-3.68-5.44c1.42-4.25,3.2-8.42,5.31-12.37
			c3.25-6.06,2.23-10.9-4.65-14.19c3.45-10.61,6.04-21.8,10.7-32.05c4.79-10.53,8.45-20.83,6.62-32.58
			c0.77-0.36,1.49-0.77,2.25-1.02c29.89-10.13,59.81-20.18,89.68-30.39c9.05-3.09,17.95-6.63,26.92-9.96c8.99,0,17.98,0,27,0
			c0,166,0,332,0,498c-1.07,1.83-2.13,3.67-3.34,5.75c0.4,1.22,0.93,2.85,1.63,4.99c-1.64-0.12-2.57-0.19-3.5-0.26
			c-0.09,0.29-0.18,0.59-0.27,0.88c1.75,0.55,3.5,1.1,5.25,1.64c-0.08,0.12-0.25,0.28-0.22,0.35
			C-274.09,276.99-273.9,277.19-273.75,277.41z M-332.7,261.16l0,0.28c0.81-3.82-0.27-4.34-5.26-2.82
			c-0.11,2.16-0.37,4.17-0.22,6.16c0.07,0.86,1.01,1.65,1.55,2.47c0.68,2.17,1.36,4.34,2.04,6.52c0.41-0.12,0.81-0.23,1.22-0.35
			C-333.15,269.32-332.92,265.24-332.7,261.16z M-305.8,259c0.15-3.95-1.01-8.31,3.46-11.26c-2.43,0.2-5.6,0.17-6.63,1.64
			c-1.49,2.13-1.42,5.34-1.98,7.96c-4.04,1.67-8.53,3.53-12.91,5.34c0,3.53,0,7.41,0,11.3c0.2-0.02,0.41-0.03,0.61-0.05
			c0.25-1.39,0.5-2.78,0.75-4.15c1.62,0.2,4,0.75,4.11,0.46c1.43-3.84,3.9-1.4,5.8-0.98c1.82,0.4,3.51,1.42,4.29,1.76
			c0-1.61-0.31-3.5,0.08-5.23c0.5-2.21,1.56-4.3,2.38-6.44c2.15,3.46,4.29,6.92,6.48,10.45c0.32-0.55,1.01-1.44,1.41-2.45
			c0.66-1.64,2.1-3.97,1.5-4.93c-1.46-2.32-3.81-4.15-6.07-5.82C-302.86,256.35-304.67,258.15-305.8,259z M-341.88,223.93
			c0.65-0.07,1.62,0.11,1.89-0.24c3.7-4.95,8.05-6.68,13.65-2.05c0.56-1.97,0.71-3.12,1.2-4.11c0.58-1.18,1.44-2.23,2.18-3.33
			c0.93,0.88,1.87,1.76,2.8,2.64c0.91,0.86,1.81,1.72,2.71,2.58c-4.55-3.89,1.94-3.81,2.33-5.89c-1.15-1.41-2.28-4.03-3.48-4.06
			c-5.22-0.13-8.94-2-11.06-6.87c-0.25-0.57-0.76-1.29-1.28-1.42c-4.81-1.19-4.51-5.18-5.13-8.41c1.55-1.2,2.78-2.16,4.01-3.12
			l-0.14,0.11c1.52-0.3,3.03-0.6,5.57-1.1c-5.16-6.28-6.11-14.33-12.72-19c-0.92-0.65-1.75-3.19-1.3-3.69
			c1.52-1.73,3.63-2.93,5.83-4.58c0.2,1.7,0.37,3.19,0.74,6.36c1.94-2.78,3.72-4.29,4.05-6.07c0.37-1.94-0.6-4.13-0.86-5.53
			c-1.14-1.69-2.67-2.95-2.71-4.26c-0.05-1.7,0.85-3.59,1.79-5.11c0.79-1.27,2.23-2.14,3.38-3.19c-1.18-0.44-2.58-0.62-3.49-1.38
			c-2.16-1.8-7.44,0.66-6.94-4.19c0.49-4.65,2.34-9.15,3.62-13.72c0.05-0.19,0.36-0.32,0.45-0.39c-0.87-0.79-2.09-1.42-2.51-2.38
			c-2-4.64-4.45-9.27-5.22-14.15c-0.21-1.32,1.06-4.33,1.25-6.71c0.03-0.36,1.96-0.9,2.95-0.78c1.42,0.16,2.78,0.85,3.09,0.95
			c2.1-3.28,3.88-6.07,5.75-9.01c-2.67,1.54-5.22,3.02-8.1,4.68c-1.72-7.42,5.69-4.46,7.09-7.26c-3.59-0.66-7.13-1.13-10.54-2.06
			c-1.16-0.32-1.99-1.82-2.97-2.77c1.14-0.71,2.26-1.47,3.44-2.11c1.02-0.56,2.11-0.98,3.17-1.46c-0.07-0.36-0.15-0.73-0.22-1.09
			c-2.16-0.39-4.32-0.78-6.64-1.2c1.82-1.81,3.33-3.32,4.08-4.06c-2.75-2.69-4.63-4.52-6.63-6.47c-1.55,3.36-3.08,6.67-4.77,10.33
			c-0.89-0.2-2.23-0.49-3.58-0.79c-0.11,0.22-0.22,0.45-0.33,0.67c2.6,1.95,5.2,3.9,8.82,6.61c-3.11,0.51-4.94,0.82-7.02,1.16
			c0.32,1.42,0.61,2.75,0.96,4.29c-1.93,0.34-3.67,0.64-5.42,0.94c1.4,1.42,3.02,1.66,4.47,2.3c0.88,0.39,1.48,1.39,2.21,2.11
			c-1.01,0.43-2,1.18-3.03,1.24c-2.95,0.17-5.92,0.06-8.88,0.06c-0.02,0.43-0.05,0.86-0.07,1.29c1.56,0.6,3.27,0.97,4.63,1.87
			c1.33,0.87,2.3,2.29,3.73,3.79c-2.25,0.67-4.33,1.29-6.87,2.04c2.26,1.99,3.86,3.39,5.4,4.74c1.82-0.43,3.61-0.86,5.46-1.3
			c1.05,9.15-0.82,12.72-6.36,12.97c1.63,1.54,1.63,1.54,9.49-2.66c-1.71,6.9-3.62,12.61-9.07,16.09c0.29,1.64,0.55,3.14,0.81,4.64
			c0.33-0.32,0.65-0.63,0.98-0.95c0.83,0.69,2.39,1.47,2.33,2.07c-0.15,1.31-0.81,3.02-1.83,3.66c-1.29,0.81-3.36,0.34-4.72,1.1
			c-5.77,3.22-11.68,5.02-18.38,3.52c-1.13-0.25-2.54,0.71-4.97,1.48c4.59,2.47,7.99,4.29,10.95,5.88c2.12-1.88,4.01-3.55,5.9-5.23
			c0.38,0.29,0.77,0.58,1.15,0.87c-1.27,2.74-2.55,5.49-3.7,7.98c5.07-2.43,9.29-4.46,13.51-6.48c0.27,0.34,0.53,0.67,0.8,1.01
			c-1.01,2.49-2.02,4.98-3.03,7.47c0.33,0.01,0.66,0.02,0.99,0.03c2.08-1.91,4.16-3.81,7.19-6.59c0.09,7.37-7.46,15.29-13.11,16.74
			c-7.53,1.93-14.89,4.55-22.32,6.87c0.31,0.4,0.62,0.79,0.93,1.19c-0.16,2.55-0.33,5.11-0.51,7.88c0.93,0.23,2.81,0.97,2.96,0.7
			c1.77-3.08,3.28-6.3,4.84-9.44c2.1,0.47,4.2,0.51,5.88,1.39c6.48,3.38,8.05,2.93,9.98-3.14c2.06,0.78,4.1,1.55,6.13,2.33
			c-1.54,6.55-2.65,7.88-5.56,7.79c-5.31-0.18-10.63-0.05-15.95-0.05c4.72,2.76,6.22,6.26,3.6,12.39c-0.41-1.35-0.6-2-0.82-2.65
			c-0.21-0.62-0.45-1.24-0.7-1.95c-3.3,4.41-6.24,8.34-9.53,12.73c2.05,0.69,3.02,0.89,3.87,1.34c0.82,0.43,1.51,1.1,2.4,1.78
			c0.56-1.17,1.01-2.1,1.5-3.12c6.84,6.23,6.84,6.23,4.61,7.59c1.49,7.87,2.9,15.3,4.36,23.02c1.39-0.49,2.69-0.95,4.28-1.51
			c1.81,6.41,5.69,8.12,11.8,6.35c2.21-0.64,4.9,0.41,8.11,0.77c1.2-1.92,1.08-1.46,4.27-0.64c6.64,1.72,13.43,2.91,19.21,4.12
			c-0.39-2.6-0.74-5-1.2-8.08c2.63,2.24,4.22,3.59,6.67,5.69c-1.73-4.36-2.9-7.32-4.09-10.34c2.46-3.47,3.54-7.07,0.68-10.82
			c-0.48-0.62-1.57-1.03-2.38-1.04c-0.37-0.01-1.12,1.23-1.07,1.84c0.15,1.71,0.54,3.41,1.01,5.06c0.49,1.74,1.19,3.42,1.8,5.12
			c-5.17,0.32-8.89-1.04-7.92-7.58c-2.98,0.31-5.43,0.56-7.87,0.81c0.05,0.44,0.09,0.88,0.14,1.32c0.74,0,1.52-0.15,2.21,0.03
			c1.48,0.39,2.91,0.94,4.36,1.43c-1.1,1.24-2.58,3.74-3.25,3.54c-7.11-2.16-11.77,4.94-18.62,4.55c-4.05-0.23-5.74,0.09-5.82-4.02
			c-0.08-4.23-0.28-8.49,0.16-12.68c0.4-3.83,3.18-5.65,6.97-5.67c1.28,0,2.62,0.22,3.84,0.63c1.21,0.4,2.31,1.16,3.46,1.75
			c-0.7,1.23-1.4,2.45-2.08,3.68c1.01,4.7-2.01,5.64-5.25,5.99c2.27,0.65,4.87,1.4,8.84,2.55
			C-339.73,228.93-340.81,226.43-341.88,223.93z M-283.25,273.42c1.27-3.06,2.07-4.99,2.87-6.91c-1.06-0.19-2.13-0.38-4.53-0.81
			c3.33-2.02,5.82-3.53,8.84-5.37c-0.12-0.09-1.07-1.37-1.66-1.22c-5.18,1.3-10.29,2.85-15.83,4.45c0.42,2.73,0.82,5.33,1.32,8.61
			C-287.06,266.86-285.82,266.97-283.25,273.42z M-294,220.38c0.4-4.92-2.3-8.12-4.33-6.07c-2.87,2.89-4.64,1.41-7.24,0.31
			c-1-0.42-2.75,0.57-3.98,1.25c-0.43,0.24-0.65,1.99-0.43,2.11c1.05,0.61,2.32,0.82,3.46,1.31c2.29,0.98,4.54,2.05,6.81,3.09
			C-298.99,220.68-298.36,217.11-294,220.38z M-370.33,138.25c1.58,1.76,2.73,3.02,3.43,3.81c2.39-1.81,4.45-3.36,6.57-4.97
			C-363.51,137.46-366.6,137.82-370.33,138.25z"/>
		<path d="M-782.75-291.38c-8.97,3.33-17.87,6.86-26.92,9.96c-29.86,10.21-59.78,20.27-89.68,30.39c-0.76,0.26-1.48,0.67-2.25,1.02
			c1.83,11.75-1.83,22.04-6.62,32.58c-4.66,10.25-7.26,21.44-10.7,32.05c6.88,3.28,7.9,8.12,4.65,14.19
			c-2.11,3.95-3.89,8.12-5.31,12.37c-0.95,2.84,0.81,4.8,3.68,5.44c4.42,1,6.26,3.63,6.25,8.2c-0.02,8.43,3.23,15.89,7.9,22.73
			c0.66,0.96,2.5,2.05,3.38,1.77c4.24-1.34,8.51-2.81,12.45-4.85c4.27-2.2,8.13-5.19,12.28-7.64c7.37-4.37,14.45-9.63,23.26-8.11
			c-0.75-2.71-1.41-5.09-2.07-7.47c0.37-0.12,0.74-0.24,1.12-0.36c-0.14-0.09-0.3-0.16-0.42-0.27c-3.68-3.15-4.67-9.44-11.03-9.45
			c0.15-1.42-0.03-2.99,0.53-4.23c0.82-1.79,2.48-3.2,3.24-5.01c1.11-2.66,2.45-5.54,2.42-8.3c-0.06-4.35-4.45-2.06-6.62-3.35
			c-0.55-0.33-1.11-0.66-1.69-1.01c1.96-7.17,3.83-14.19,5.83-21.19c0.4-1.41,1.09-2.82,1.96-4c15.01-20.41,48.51-25.56,65.76-12.23
			c3,2.32,5.87,5.7,7.11,9.19c2.76,7.78,4.3,15.99,6.65,23.93c1.47,4.97-0.62,7.13-5.15,8.01c-0.96,0.19-1.87,0.61-2.3,0.76
			c-0.89,5.39-1.79,10.41-2.54,15.46c-0.91,6.12-2.89,11.57-8.18,15.39c-0.7,0.5-0.95,2.07-0.89,3.11
			c0.62,10.89,1.85,21.24,10.7,29.56c8.99,8.45,8.06,20.49,2.4,34.81c-12.93,32.75-39.68,50.61-68.51,66.64
			c-4.06,2.26-8.24,4.32-12.32,6.45c0.28,8.18-6.44,11.85-10.78,16.94c3.46,7.56,2.54,11.48-2.94,17.63
			c-1.59,1.78-2.18,4.75-2.58,7.27c-3.28,20.66-16.37,32.95-34.89,40.01c-5.71,2.18-12.35,1.9-18.54,2.87
			c-5.21,0.82-10.48,1.46-15.56,2.81c-18.41,4.9-36.36,1.23-54.3-2.59c-12.18-2.59-24.26-5.6-36.45-8.13
			c-7.06-1.47-6.97-0.81-9.18,5.87c-2.59,7.8-6.21,15.27-9.36,22.89c-0.88,2.12-1.69,4.27-2.51,6.41
			c-2.41,6.32-3.6,13.51-7.42,18.81c-11.64,16.16-16.4,34.72-20.92,53.51c-0.97,4.05-1.3,7.42,1.57,11.5
			c2.92,4.15,3.83,9.81,5.23,14.91c1.07,3.92-1.53,5.94-4.91,6.77c-9.84,2.39-19.71,4.7-29.61,6.85c-7.79,1.7-15.59,3.77-23.49,4.48
			c-6.34,0.56-12.87-0.42-19.26-1.21c-4.92-0.61-6.44-4.63-6.15-8.87c0.28-4.09,3.77-5.04,7.28-5.41c2.32-0.25,4.64-0.47,6.96-0.7
			c9.38-0.93,16.09-5.57,20.5-15.51c-6.67,2.01-12.53,3.48-18.18,5.53c-11.74,4.26-29.6-0.01-38.04-8.51
			c-6.38-6.42-4.04-15.8,5.33-17.49c13.04-2.35,24.65-8.06,36.21-14.72c8.52-4.91,16.93-9.53,22.36-17.57
			c7.15-10.58,14.01-21.53,19.37-33.08c2.96-6.37,2.53-14.3,3.72-21.51c1.67-10.12,4.3-19.98,3.54-30.57
			c-0.61-8.6,5.62-14.62,13.17-17.83c20.92-8.88,41.94-17.57,63.2-25.62c9.43-3.57,19.53-5.33,29.27-8.13
			c3.1-0.89,6.08-2.32,8.96-3.81c8.4-4.34,16.89-8.55,24.97-13.43c2.36-1.43,4.24-4.75,4.97-7.55c1.36-5.24,2.97-9.75,8.55-11.88
			c1.41-0.54,2.41-2.15,2.37-3.59c0-2.26-0.2-4.54,0.04-6.78c0.61-5.82,2.43-11.02,5.65-16.19c2.19-3.52,2.44-9.04,1.77-13.39
			c-1.15-7.61-3.51-14.98,1.78-21.99c0.38-0.5,0.05-1.52,0.05-4.01c-2.51,2.08-4.22,3.12-5.43,4.58c-2.61,3.14-8.91,5.23-12.57,3.87
			c-2.45-0.91-2.76-7,0.08-9.65c2.74-2.56,6.01-4.78,9.41-6.35c4.36-2.02,7.01-4.39,6.15-9.69c-0.47-2.91,0.03-5.98,0.05-8.98
			c0.01-0.99,0.26-2.41-0.28-2.9c-7.4-6.85-0.8-13.39,0.3-20.03c0.16-1,0.13-2.03,0.31-3.02c0.34-1.91,0.76-3.8,1.15-5.71
			c0.55,0.02,1.11,0.03,1.66,0.05c-0.31-0.71-0.42-1.85-0.94-2.08c-5.75-2.55-4.85-8.02-5.36-12.63c-0.3-2.72,0.35-5.71,1.25-8.36
			c2.43-7.17,6.19-8.23,12.2-3.82c0.23,0.17,0.64,0.09,1.79,0.23c-1.32-6.37,2.79-12.47-0.67-18.98c-1.3-2.45-0.79-5.87-1.12-8.84
			c-1.03-9.15-4.72-15.99-14.61-18.26c-1.93-0.44-3.36-3.09-5.71-5.4c-16.58,5.34-34.32,11.37-52.25,16.79
			c-69.48,21-139.02,41.81-208.53,62.69c0-1.67,0-3.33,0-5c0.66-0.05,1.36,0.02,1.98-0.17c85.87-26.35,171.74-52.71,257.61-79.09
			c1.1-0.34,2.52-0.5,3.2-1.26c5.65-6.35,12.92-8.34,21.09-8.61c3.59-0.12,7.29-0.82,10.7-1.95c26.02-8.6,52.01-17.29,77.94-26.13
			c11.9-4.06,23.66-8.52,35.48-12.79C-792.75-291.38-787.75-291.38-782.75-291.38z M-922.83-56.43c0.51,0.31,1.03,0.63,1.54,0.94
			c0.67-1.14,1.34-2.29,2.02-3.42c4.03-6.66,8.56-13.07,11.8-20.09c1.05-2.28-0.4-7.92-2.29-8.87c-3.9-1.97-8.87-1.81-13.48-2.54
			c0,4.36,0.99,8.62-0.2,12.15C-926.02-70.64-923.11-63.68-922.83-56.43z M-929.53-63.68c-0.65-0.01-1.31-0.02-1.96-0.03
			c0,4.38,0,8.76,0,14.08C-925.91-54.46-930.05-59.29-929.53-63.68z"/>
		<path class="st0" d="M-315.75-234.59c-11.82,4.28-23.58,8.74-35.48,12.79c-25.94,8.84-51.93,17.53-77.94,26.13
			c-3.42,1.13-7.11,1.83-10.7,1.95c-8.17,0.27-15.44,2.26-21.09,8.61c-0.68,0.76-2.09,0.92-3.2,1.26
			c-85.87,26.37-171.73,52.74-257.61,79.09c-0.62,0.19-1.32,0.12-1.98,0.17c0-43.29,0-86.59,0-130
			C-587.75-234.59-451.75-234.59-315.75-234.59z"/>
		<path d="M-591.75,296.41c-2.02-0.68-4.05-1.35-6.9-2.31c1.99-0.92,3.32-1.54,5.04-2.33c-1.3-1.41-2.44-2.64-4.18-4.52
			c3.29-0.84,5.94-1.51,8.9-2.27c-0.19-3.17-0.38-6.41-0.59-9.85c1.27-0.42,2.42-0.8,3.57-1.19c0-0.43,0.01-0.86,0.01-1.29
			c-2.23,0-4.47,0-7.88,0c0.88-2.4,1.18-5.35,2.26-5.67c1.84-0.55,4.18,0.55,6.69-0.09c-0.99-0.54-1.98-1.09-3.94-2.17
			c1.66-0.8,2.96-1.42,4.26-2.05c-0.16-0.42-0.32-0.85-0.48-1.27c-4.12,1.03-7.69,0.83-8.4-3.99c-0.06-0.43,2.45-1.25,3.74-1.87
			c-2.94-5.07-1.41-11.28,3.91-14.38c-1.37-1.89-2.74-3.79-4.32-5.96c4.01-0.55,7.33-1.01,10.41-1.43
			c-4.24-2.12-8.45-4.23-12.66-6.33c0.12-0.5,0.24-1.01,0.35-1.51c2.66-0.04,7,2.45,5.63-3.61c-0.18-0.81,2.53-2.27,4-3.5
			c-1.57-1.79-3.3-3.77-5.26-6.01c1.51-0.22,2.6-0.39,4.05-0.6c-0.55-1.12-0.99-2.04-1.58-3.23c1.37,0.1,2.48,0.18,2.62,0.19
			c1.58-7.63,3.11-15.02,4.64-22.41c0.5-0.02,0.99-0.04,1.49-0.05c2.79,11.52,3.62,23.27,3.25,35.56c1.01,0.16,2.44,0.39,4.99,0.8
			c-1.69,1.74-3.09,2.91-4.15,4.34c-0.9,1.22-1.39,2.73-2.07,4.11c1.31,0.57,2.59,1.47,3.95,1.62c2.34,0.27,4.74,0.07,8.31,0.07
			c-4.25,3.08-7.39,5.36-10.76,7.81c3.2,1.36,6.21,2.63,9.16,3.88c-3.44,1.54-6.61,2.48-9.14,4.31c-0.95,0.69-1.12,3.84-0.36,5.11
			c0.72,1.21,3.06,1.74,4.77,2.01c1.92,0.3,3.93-0.04,5.9-0.1c0.02,0.52,0.03,1.04,0.05,1.56c-4.18,0.49-8.36,0.98-11.25,1.32
			c-1.17,2.92-1.93,4.84-2.65,6.63c4.03,1.08,8.37,2.25,12.71,3.41c-0.23,0.83-0.47,1.65-0.7,2.48c-1.73-0.6-3.42-1.37-5.19-1.77
			c-1.96-0.45-4-0.56-6.01-0.82c0.42,1.64,0.69,3.34,1.29,4.9c0.51,1.3,1.41,2.46,2.24,3.85c-2.05,0.37-3.54,0.64-5.03,0.92
			c0.01,0.4,0.02,0.8,0.02,1.2c1.29,0.43,2.58,0.87,4.76,1.6c-1.62,0.71-2.5,1.1-2.97,1.31c0.62,2.26,0.63,4.91,1.95,6.44
			c1.64,1.9,4.29,3,6.62,4.2c2.22,1.14,4.6,1.97,6.91,2.93C-570.42,296.41-581.08,296.41-591.75,296.41z"/>
		<path d="M-273.98,276.41c-1.75-0.55-3.5-1.1-5.25-1.64c0.09-0.29,0.18-0.59,0.27-0.88c0.93,0.07,1.86,0.14,3.5,0.26
			c-0.7-2.14-1.23-3.77-1.63-4.99c1.21-2.09,2.28-3.92,3.34-5.75c0,4.33,0,8.67,0,13L-273.98,276.41z"/>
		<path d="M-273.98,276.41l0.23,0.01c0,0.33,0,0.67,0,1c-0.15-0.22-0.34-0.42-0.45-0.65C-274.23,276.69-274.05,276.52-273.98,276.41
			z"/>
		<path d="M-332.07,189.65c-1.23,0.96-2.46,1.92-4.01,3.12c0.62,3.22,0.32,7.21,5.13,8.41c0.52,0.13,1.03,0.86,1.28,1.42
			c2.11,4.87,5.83,6.74,11.06,6.87c1.2,0.03,2.33,2.65,3.48,4.06c-0.39,2.08-6.88,2.01-2.33,5.89c-0.9-0.86-1.81-1.72-2.71-2.58
			c-0.93-0.88-1.86-1.76-2.8-2.64c-0.74,1.11-1.6,2.15-2.18,3.33c-0.49,0.99-0.64,2.14-1.2,4.11c-5.6-4.64-9.94-2.9-13.65,2.05
			c-0.26,0.35-1.24,0.17-1.89,0.24l0.04-0.02c0.7-1.23,1.4-2.45,2.11-3.68c-1.15-0.6-2.24-1.35-3.46-1.75
			c-1.22-0.4-2.55-0.63-3.84-0.63c-3.8,0.01-6.57,1.84-6.97,5.67c-0.44,4.19-0.25,8.45-0.16,12.68c0.08,4.11,1.77,3.79,5.82,4.02
			c6.86,0.4,11.51-6.7,18.62-4.55c0.66,0.2,2.15-2.29,3.25-3.54c-1.45-0.49-2.89-1.04-4.36-1.43c-0.69-0.18-1.47-0.03-2.21-0.03
			c-0.05-0.44-0.09-0.88-0.14-1.32c2.45-0.25,4.9-0.5,7.87-0.81c-0.96,6.54,2.75,7.9,7.92,7.58l-0.02-0.1
			c1.17,2.96,2.34,5.92,4.07,10.28c-2.45-2.09-4.04-3.45-6.67-5.69c0.46,3.09,0.82,5.48,1.2,8.08c-5.79-1.21-12.57-2.4-19.21-4.12
			c-3.19-0.83-3.07-1.29-4.27,0.64c-3.21-0.36-5.9-1.41-8.11-0.77c-6.11,1.77-9.99,0.06-11.8-6.35c-1.6,0.56-2.9,1.02-4.28,1.51
			c-1.46-7.72-2.87-15.15-4.36-23.02c2.23-1.36,2.23-1.36-4.61-7.59c-0.49,1.02-0.94,1.95-1.5,3.12c-0.89-0.68-1.58-1.35-2.4-1.78
			c-0.85-0.44-1.82-0.65-3.87-1.34c3.29-4.39,6.23-8.32,9.53-12.73c0.26,0.72,0.5,1.33,0.7,1.95c0.22,0.64,0.4,1.3,0.82,2.65
			c2.62-6.13,1.12-9.63-3.6-12.39c5.32,0,10.64-0.13,15.95,0.05c2.91,0.1,4.02-1.23,5.56-7.79c-2.03-0.78-4.07-1.55-6.13-2.33
			c-1.93,6.07-3.5,6.52-9.98,3.14c-1.68-0.87-3.78-0.92-5.88-1.39c-1.56,3.14-3.07,6.37-4.84,9.44c-0.15,0.26-2.04-0.47-2.96-0.7
			c0.18-2.77,0.34-5.32,0.51-7.88c-0.31-0.4-0.62-0.79-0.93-1.19c7.43-2.32,14.79-4.95,22.32-6.87c5.66-1.45,13.21-9.37,13.11-16.74
			c-3.03,2.78-5.11,4.68-7.19,6.59c-0.33-0.01-0.66-0.02-0.99-0.03c1.01-2.49,2.02-4.98,3.03-7.47c-0.27-0.34-0.53-0.67-0.8-1.01
			c-4.22,2.03-8.45,4.05-13.51,6.48c1.16-2.5,2.43-5.24,3.7-7.98c-0.38-0.29-0.77-0.58-1.15-0.87c-1.89,1.67-3.77,3.34-5.9,5.23
			c-2.96-1.59-6.36-3.41-10.95-5.88c2.43-0.76,3.84-1.73,4.97-1.48c6.69,1.5,12.6-0.3,18.38-3.52c1.36-0.76,3.43-0.28,4.72-1.1
			c1.02-0.64,1.69-2.35,1.83-3.66c0.07-0.59-1.5-1.37-2.33-2.07c-0.33,0.32-0.65,0.63-0.98,0.95c-0.26-1.5-0.52-3-0.81-4.64
			c5.45-3.48,7.36-9.18,9.07-16.09c-7.87,4.19-7.87,4.19-9.49,2.66c5.54-0.25,7.41-3.83,6.36-12.97c-1.86,0.44-3.64,0.87-5.46,1.3
			c-1.54-1.35-3.14-2.75-5.4-4.74c2.53-0.75,4.62-1.37,6.87-2.04c-1.44-1.5-2.41-2.91-3.73-3.79c-1.36-0.9-3.07-1.27-4.63-1.87
			c0.02-0.43,0.05-0.86,0.07-1.29c2.96,0,5.93,0.11,8.88-0.06c1.03-0.06,2.02-0.81,3.03-1.24c-0.73-0.72-1.33-1.73-2.21-2.11
			c-1.45-0.64-3.07-0.88-4.47-2.3c1.75-0.3,3.49-0.61,5.42-0.94c-0.34-1.54-0.64-2.87-0.96-4.29c2.08-0.34,3.91-0.64,7.02-1.16
			c-3.61-2.71-6.22-4.66-8.82-6.61c0.11-0.22,0.22-0.45,0.33-0.67c1.35,0.3,2.69,0.59,3.58,0.79c1.69-3.66,3.21-6.96,4.77-10.33
			c2,1.95,3.88,3.79,6.63,6.47c-0.75,0.74-2.27,2.25-4.08,4.06c2.32,0.42,4.48,0.81,6.64,1.2c0.07,0.36,0.15,0.73,0.22,1.09
			c-1.06,0.48-2.15,0.91-3.17,1.46c-1.18,0.64-2.29,1.4-3.44,2.11c0.98,0.96,1.82,2.46,2.97,2.77c3.41,0.93,6.96,1.4,10.54,2.06
			c-1.4,2.79-8.81-0.16-7.09,7.26c2.88-1.66,5.43-3.14,8.1-4.68c-1.87,2.93-3.66,5.72-5.75,9.01c-0.31-0.1-1.67-0.79-3.09-0.95
			c-0.99-0.11-2.92,0.42-2.95,0.78c-0.18,2.38-1.46,5.38-1.25,6.71c0.77,4.87,3.21,9.51,5.22,14.15c0.42,0.97,1.64,1.59,2.51,2.38
			c-0.09,0.08-0.4,0.2-0.45,0.39c-1.28,4.56-3.13,9.07-3.62,13.72c-0.51,4.85,4.78,2.39,6.94,4.19c0.91,0.76,2.31,0.94,3.49,1.38
			c-1.15,1.05-2.59,1.92-3.38,3.19c-0.94,1.53-1.84,3.41-1.79,5.11c0.04,1.3,1.57,2.57,2.71,4.26c0.26,1.4,1.23,3.59,0.86,5.53
			c-0.34,1.78-2.11,3.29-4.05,6.07c-0.37-3.16-0.54-4.66-0.74-6.36c-2.2,1.64-4.31,2.85-5.83,4.58c-0.45,0.51,0.38,3.04,1.3,3.69
			c6.61,4.66,7.55,12.72,12.72,19c-2.54,0.5-4.06,0.8-5.56,1.09c3.83-4.96-2.93-6.3-2.85-9.97
			C-338.19,186.39-337.41,188.6-332.07,189.65z"/>
		<path d="M-305.85,259.34c-0.82,2.14-1.88,4.23-2.38,6.44c-0.39,1.73-0.08,3.62-0.08,5.23c-0.78-0.33-2.46-1.36-4.29-1.76
			c-1.9-0.42-4.38-2.86-5.8,0.98c-0.11,0.29-2.49-0.26-4.11-0.46c-0.25,1.37-0.5,2.76-0.75,4.15c-0.2,0.02-0.41,0.03-0.61,0.05
			c0-3.89,0-7.77,0-11.3c4.38-1.81,8.87-3.66,12.91-5.34c0.57-2.61,0.5-5.83,1.98-7.96c1.03-1.47,4.2-1.44,6.63-1.64
			c-4.46,2.95-3.31,7.31-3.46,11.26C-305.81,259.11-305.83,259.22-305.85,259.34z"/>
		<path d="M-283.25,273.42c-2.57-6.45-3.82-6.56-8.99-1.26c-0.5-3.28-0.9-5.88-1.32-8.61c5.54-1.6,10.65-3.15,15.83-4.45
			c0.59-0.15,1.54,1.13,1.66,1.22c-3.03,1.84-5.51,3.34-8.84,5.37c2.4,0.43,3.47,0.62,4.53,0.81
			C-281.18,268.44-281.98,270.37-283.25,273.42z"/>
		<path d="M-294,220.38c-4.36-3.27-4.99,0.3-5.7,1.99c-2.27-1.03-4.52-2.1-6.81-3.09c-1.14-0.49-2.4-0.7-3.46-1.31
			c-0.22-0.13,0-1.88,0.43-2.11c1.23-0.67,2.98-1.67,3.98-1.25c2.59,1.1,4.36,2.58,7.24-0.31C-296.3,212.26-293.6,215.47-294,220.38
			z"/>
		<path d="M-305.85,259.34c0.03-0.12,0.04-0.23,0.05-0.34c1.13-0.85,2.94-2.64,3.27-2.41c2.26,1.66,4.61,3.5,6.07,5.82
			c0.6,0.96-0.84,3.28-1.5,4.93c-0.4,1.01-1.09,1.9-1.41,2.45C-301.56,266.26-303.71,262.8-305.85,259.34z"/>
		<path d="M-317.4,236.12c-0.61-1.7-1.31-3.38-1.8-5.12c-0.47-1.65-0.86-3.36-1.01-5.06c-0.05-0.62,0.7-1.85,1.07-1.84
			c0.81,0.01,1.9,0.42,2.38,1.04c2.86,3.75,1.78,7.35-0.66,10.85C-317.42,236.03-317.4,236.12-317.4,236.12z"/>
		<path d="M-370.33,138.25c3.74-0.44,6.83-0.8,10-1.17c-2.13,1.61-4.19,3.17-6.57,4.97C-367.61,141.28-368.75,140.01-370.33,138.25z
			"/>
		<path d="M-341.88,223.93c1.07,2.5,2.15,5.01,3.65,8.52c-3.97-1.14-6.57-1.89-8.84-2.55c3.24-0.35,6.26-1.3,5.24-5.99
			C-341.85,223.91-341.88,223.93-341.88,223.93z"/>
		<path d="M-336.63,267.24c-0.54-0.82-1.49-1.61-1.55-2.47c-0.15-1.99,0.12-4,0.22-6.16c5-1.52,6.08-1.01,5.26,2.82
			c-0.95-0.63-1.9-1.25-4.09-2.69c0,3.78,0,6.24,0,8.7L-336.63,267.24z"/>
		<path d="M-332.7,261.16c-0.22,4.08-0.45,8.17-0.67,12.25c-0.41,0.12-0.81,0.23-1.22,0.35c-0.68-2.17-1.36-4.34-2.04-6.52
			c0,0-0.16,0.2-0.16,0.2c0.81-0.04,2.23,0.15,2.34-0.15C-333.71,265.3-333.25,263.21-332.7,261.16z"/>
		<path class="st0" d="M-332.7,261.16c-0.55,2.06-1.01,4.15-1.75,6.13c-0.11,0.3-1.53,0.11-2.34,0.15c0-2.46,0-4.93,0-8.7
			c2.19,1.44,3.14,2.07,4.09,2.69C-332.7,261.43-332.7,261.16-332.7,261.16z"/>
		<path class="st0" d="M-440.83,0.36c-0.29-7.25-3.19-14.21-0.61-21.84c1.19-3.53,0.2-7.79,0.2-12.15
			c4.61,0.73,9.58,0.57,13.48,2.54c1.89,0.95,3.34,6.6,2.29,8.87c-3.24,7.02-7.77,13.44-11.8,20.09c-0.69,1.13-1.35,2.28-2.02,3.42
			C-439.8,0.99-440.32,0.67-440.83,0.36z"/>
		<path class="st0" d="M-447.53-6.89c-0.52,4.39,3.61,9.22-1.96,14.05c0-5.32,0-9.7,0-14.08C-448.84-6.91-448.18-6.9-447.53-6.89z"
			/>
		<path class="st0" d="M-332.07,189.65c-5.34-1.05-6.12-3.26-2.97-9.87c-0.08,3.67,6.68,5.01,2.85,9.97
			C-332.21,189.76-332.07,189.65-332.07,189.65z"/>
	</g>
</g>
<g>
	<g>
		<path class="st0" d="M3.24,3.63h5.97c4.18,0,5.97,1.94,5.97,5.9v1.58c0,2.64-0.84,4.32-2.64,5.06v0.07
			c2.02,0.62,2.67,2.53,2.67,5.42v4.51c0,1.25,0.04,2.16,0.44,3.11h-4.1c-0.22-0.66-0.37-1.06-0.37-3.15v-4.69
			c0-2.38-0.7-3.15-2.53-3.15H7.27v10.99H3.24V3.63z M8.73,14.62c1.5,0,2.42-0.66,2.42-2.71V9.93c0-1.83-0.62-2.64-2.05-2.64H7.27
			v7.33H8.73z"/>
		<path class="st0" d="M21.12,3.63h5.46l4.18,25.65h-4.03l-0.73-5.09v0.07h-4.58l-0.73,5.02h-3.74L21.12,3.63z M25.51,20.77
			L23.72,8.1h-0.07l-1.76,12.68H25.51z"/>
		<path class="st0" d="M32.69,3.63h4.03v10.81l5.13-10.81h4.03l-4.8,9.42l4.87,16.23h-4.21l-3.41-11.43l-1.61,3.26v8.17h-4.03V3.63z
			"/>
		<path class="st0" d="M2.43,53.68l7.47-18.39H2.8v-3.66h11.43v3.59L6.76,53.61h7.47v3.66H2.43V53.68z"/>
		<path class="st0" d="M16.5,31.63h4.03v25.65H16.5V31.63z"/>
		<path class="st0" d="M23.53,31.63h5.94c4.03,0,6.01,2.24,6.01,6.34v2.53c0,4.1-1.98,6.34-6.01,6.34h-1.9v10.44h-4.03V31.63z
			 M29.47,43.17c1.28,0,1.98-0.59,1.98-2.42v-3.04c0-1.83-0.7-2.42-1.98-2.42h-1.9v7.88H29.47z"/>
		<path class="st0" d="M43.53,31.63h4.03v21.98h6.63v3.66H43.53V31.63z"/>
		<path class="st0" d="M56.13,31.63h4.03v25.65h-4.03V31.63z"/>
		<path class="st0" d="M63.17,31.63h5.06l3.92,15.35h0.07V31.63h3.59v25.65h-4.14l-4.84-18.72h-0.07v18.72h-3.59V31.63z"/>
		<path class="st0" d="M78.81,31.63H89.8v3.66h-6.96v6.78h5.53v3.66h-5.53v7.88h6.96v3.66H78.81V31.63z"/>
	</g>
	<g>
		<line class="st0" x1="45.88" y1="3.63" x2="89.8" y2="31.63"/>
		
			<rect x="67.69" y="-8.42" transform="matrix(0.5376 -0.8432 0.8432 0.5376 16.5072 65.3534)" class="st0" width="0.3" height="52.09"/>
	</g>
	<path class="st0" d="M52.47,7.83c0.31,0.22,0.61,0.44,0.92,0.65c1.03,0.69,2.06,1.37,3.09,2.05c0.03,0.02,0.05,0.04,0.07,0.06
		c-0.18,0.48-0.14,0.94-0.06,1.43c0.08,0.47,0.07,0.97,0.1,1.44c-0.29,0.08-0.38,0.27-0.31,0.56c0.04,0.18,0.07,0.38,0.08,0.57
		c0.01,0.13-0.08,0.2-0.19,0.2c-0.18,0-0.27,0.1-0.31,0.29c-0.08,0.36-0.27,0.64-0.52,0.89c-0.03,0.03-0.11,0.06-0.14,0.05
		c-0.15-0.09-0.29-0.19-0.42-0.31c-0.14-0.13-0.26-0.29-0.39-0.43c-0.24-0.25-0.45-0.53-0.8-0.54c0.05-0.11,0.1-0.2,0.15-0.3
		c-0.01-0.01-0.03-0.02-0.04-0.02c0.01,0,0.01,0,0.02-0.01c0.17-0.1,0.27-0.36,0.51-0.3c0.01-0.06,0.03-0.13,0.02-0.18
		c-0.01-0.08-0.06-0.16-0.07-0.24c-0.02-0.12-0.04-0.25-0.01-0.37c0.04-0.18,0.19-0.05,0.28-0.08c0.02-0.01,0.05-0.02,0.07-0.03
		c-0.01-0.32-0.01-0.63-0.02-0.94c0-0.06-0.01-0.13-0.04-0.19c-0.37-0.99-1.58-1.49-2.36-1.08c-0.14,0.07-0.28,0.19-0.36,0.33
		c-0.18,0.3-0.32,0.64-0.48,0.95c-0.1,0.2-0.05,0.31,0.12,0.38c0.03,0.02,0.06,0.04,0.08,0.05c-0.02,0.23-0.03,0.45-0.05,0.67
		c-0.02,0.27,0,0.51,0.16,0.72c0.02,0.03,0.02,0.1,0,0.14c-0.13,0.45-0.27,0.88-0.69,1.15c-0.42,0.28-0.5,0.79-0.42,1.45
		c0.17,1.49,1.01,2.47,1.94,3.39c0.13,0.13,0.27,0.25,0.4,0.38c-0.09,0.34,0.13,0.55,0.24,0.81c-0.2,0.29-0.21,0.46-0.06,0.77
		c0.04,0.09,0.04,0.22,0.03,0.33c-0.07,0.9,0.3,1.53,0.93,1.98c0.19,0.14,0.45,0.19,0.67,0.28c0.19,0.08,0.38,0.15,0.56,0.25
		c0.65,0.36,1.36,0.36,2.07,0.36c0.48,0,0.97-0.03,1.45-0.03c0.28,0,0.27,0.03,0.29,0.33c0.02,0.35,0.09,0.7,0.13,1.04
		c0.01,0.1,0.02,0.19,0.03,0.29c0.03,0.29,0.01,0.6,0.1,0.86c0.28,0.78,0.28,1.6,0.27,2.43c0,0.18-0.02,0.32-0.17,0.47
		c-0.15,0.15-0.24,0.38-0.34,0.58c-0.08,0.16,0,0.26,0.12,0.33c0.35,0.19,0.7,0.37,1.05,0.54c0.28,0.14,0.55,0.29,0.84,0.39
		c0.23,0.08,0.49,0.09,0.74,0.11c0.19,0.02,0.29-0.14,0.32-0.32c0.03-0.17-0.09-0.24-0.22-0.29c-0.09-0.03-0.17-0.06-0.26-0.09
		c-0.34-0.12-0.55-0.37-0.62-0.83c0.23,0.14,0.44,0.25,0.63,0.39c0.4,0.28,1.11,0.25,1.51-0.03c0.3-0.22,0.3-0.63-0.03-0.78
		c-0.47-0.21-0.85-0.55-1.22-0.93c-0.27-0.28-0.55-0.55-0.67-0.93c-0.17-0.51-0.32-1.03-0.41-1.56c-0.05-0.29,0.04-0.62,0.07-0.94
		c0.03-0.44,0.03-0.88,0.16-1.32c0.11-0.36-0.07-0.66-0.32-0.86c-0.7-0.55-1.41-1.1-2.13-1.62c-0.32-0.23-0.68-0.39-1.02-0.59
		c-0.11-0.06-0.21-0.15-0.3-0.24c-0.27-0.25-0.55-0.5-0.81-0.78c-0.08-0.08-0.11-0.24-0.11-0.36c0-0.23-0.02-0.44-0.21-0.57
		c-0.05-0.03-0.07-0.11-0.05-0.17c0.02-0.1,0.05-0.19,0.06-0.29c0.03-0.25,0.01-0.48-0.06-0.73c-0.05-0.17-0.01-0.4,0.06-0.58
		c0.12-0.31,0.28-0.6,0.14-0.94c-0.01-0.02,0.01-0.06,0.04-0.17c0.07,0.11,0.13,0.17,0.16,0.24c0.07,0.15,0.29,0.3,0.44,0.27
		c0.1-0.02,0.17-0.27,0.09-0.41c-0.08-0.13-0.18-0.25-0.29-0.35c-0.14-0.12-0.22-0.25-0.14-0.46c0.05-0.12,0.06-0.25,0.08-0.38
		c0.01-0.04,0.01-0.1,0.04-0.12c0.34-0.22,0.16-0.56,0.18-0.85c0-0.04,0.01-0.09,0.02-0.13c0.01-0.08,0.01-0.17,0.01-0.25
		c-0.02,0-0.04-0.01-0.06-0.01c0.02-0.03,0.03-0.07,0.06-0.08c0.24-0.06,0.26-0.3,0.32-0.49c0.04-0.11,0.04-0.24,0.03-0.36
		c-0.02-0.32-0.15-0.4-0.42-0.27c-0.01,0.01-0.02,0-0.07-0.01c0.11-0.26,0.01-0.55,0.21-0.79c0.07-0.09,0.09-0.24,0.13-0.36
		c0.13-0.38,0.33-0.63,0.73-0.64c0.08,0,0.16-0.1,0.27-0.18c0.57,0.37,1.18,0.77,1.81,1.15c2.41,1.48,4.83,2.95,7.25,4.43
		c0.02-0.07,0.03-0.14,0.05-0.21c-0.02-0.01-0.05-0.01-0.07-0.02c-2.98-1.85-5.96-3.69-8.94-5.54c-0.04-0.02-0.09-0.04-0.11-0.08
		c-0.15-0.32-0.41-0.46-0.71-0.54c-0.13-0.04-0.27-0.1-0.38-0.17c-0.9-0.59-1.79-1.17-2.68-1.77c-0.41-0.27-0.81-0.56-1.21-0.84
		C52.84,7.92,52.66,7.88,52.47,7.83z"/>
</g>
</svg>
